<svg xmlns="http://www.w3.org/2000/svg" width="256" height="256" viewBox="0 0 256 256">
  <g id="splash" transform="translate(-1054 -200)">
    <g id="splash-2" data-name="splash" transform="translate(-27 -43)">
      <g id="splash-3" data-name="splash" transform="translate(-4461 133)">
        <rect id="Rechteck_24" data-name="Rechteck 24" width="256" height="256" transform="translate(5542 110)" fill="#8a5757"/>
      </g>
      <path id="Differenzmenge_9" data-name="Differenzmenge 9" d="M143.409,147.63c-.311,0-.542-.357-.974-1.212-.355-.7-1.544-2.706-2.6-4.388-2.359-3.771-2.81-4.966-3.217-8.523-.259-2.279-.65-3.483-2.462-7.576-2.081-4.686-2.268-4.979-5-7.859a27.427,27.427,0,0,0-3.091-3,5.9,5.9,0,0,0-.481,2.319l-.23,2.318,1.777,1.636c2.07,1.906,2.315,2.345,2.623,4.7a6.941,6.941,0,0,0,1.312,3.3c.711,1.007.968,1.65.835,2.084a.959.959,0,0,1-.645.581.5.5,0,0,1-.148.026c-.386,0-1.015-.479-2.04-1.554-1.5-1.574-1.678-1.915-1.893-3.651-.222-1.809-.354-2.04-2.35-4.121l-2.113-2.2-.049-2.153c-.113-5.062-1.047-12.231-1.885-14.473a15.24,15.24,0,0,0-1.085-2.47.079.079,0,0,0-.059-.023c-.476,0-2.58,2.961-4.79,6.742-.956,1.633-2.2,3.641-2.765,4.476a6.292,6.292,0,0,0-1.065,2.2,42.411,42.411,0,0,0,3.4,8.041c.532.615.554,1.021.082,1.5a.678.678,0,0,1-.476.234c-.5,0-1.133-.687-2.337-2.535-2.491-3.814-3.849-5.59-4.276-5.59a.134.134,0,0,0-.044.007c-.2.074-1.068.368-2.065.7-1.79.594-2.559,1.452-3.292,3.673a2.352,2.352,0,0,0,.24,2.261,45.363,45.363,0,0,0,5.872,7.752c1.873,2.137,2.587,3.239,2.385,3.685-.073.159-.262.236-.579.236a29.113,29.113,0,0,1-4.4-3.751c-2.159-2.054-4.821-4.535-5.936-5.531-2.74-2.437-3.051-3.173-2.563-6.057A7.685,7.685,0,0,1,98.294,116a4.281,4.281,0,0,0,.874-2.016,28.929,28.929,0,0,0-1.8-5.134c-.978-2.32-2.056-5.019-2.4-6.017-1-2.869-1.723-3.542-6.487-6.007-4.962-2.568-5.067-2.694-5.63-6.775l-.089-.644c-.542-3.96-.542-3.96-2.019-4.962l-.009-.005c-.039-.025-.077-.051-.116-.078l-.041-.028-.006,0-.074-.051c-.75-.509-2.292-1.57-4.716-3.242l-.016-.011-.01-.006c-1.553-1.074-2.409-1.665-2.89-1.665-.556,0-.566.852-.587,2.55-.022,1.851,0,1.888,1.881,3.93,2.13,2.308,3.864,5.437,3.864,6.975,0,.607-.13.915-.385.917-.409,0-1.12-.814-2-2.293A9.226,9.226,0,0,0,72.578,88.1l-.169-.113c-3.055-2.03-3.055-2.03-3.021-7.445l0-.285c.023-3.593-.1-5.433-.418-6.349a25.1,25.1,0,0,0-4.026-6.074c-.2-.18-.325-.29-.434-.29-.267,0-.415.674-.853,2.677l-.006.028,0,.012c-.365,1.66-.831,3.951-1.04,5.106a14.83,14.83,0,0,1-.8,2.945,28.092,28.092,0,0,0-.973,4.882c-.477,3.464-.5,4.354-.142,6.35.473,2.675.623,2.822,4.032,3.935,1.321.433,3.477,1.158,4.806,1.616a43.611,43.611,0,0,0,4.4,1.253,4.1,4.1,0,0,1,2.97,1.7c1.08,1.271,1.313,1.824,2.075,4.936.323,1.315,5.054,8.413,7.231,10.849a4.547,4.547,0,0,1,1.252,2.745,52.832,52.832,0,0,0,1.2,6.492c.228.769-.9,3.407-1.2,3.771-.086.1-.16.154-.228.154-.282,0-.429-.887-.652-2.229l0-.008,0-.011v-.009l0-.012,0-.012a39.668,39.668,0,0,0-1.168-5.288,20.324,20.324,0,0,0-5.7-8.715c-2.1-1.984-2.646-2.769-4.52-6.454l-2.133-4.194-1.92-.58a20.9,20.9,0,0,0-4.934-.846c-.351,0-.564.036-.633.107a.072.072,0,0,0-.021.058,20.68,20.68,0,0,0,1.608,2.709c.072.112.143.22.212.323l0,.006.072.108.009.014.049.075.113.17.007.013c2.161,3.261,2.161,3.261,1.6,11.382l0,.036v.012l-.047.689,0,.03-.012.177v.015q-.016.229-.031.466l-.022.319c-.564,8.381-.576,9.32-.122,10.047.277.444,3.171,3.753,6.45,7.376,6.283,6.942,6.576,7.306,6.271,7.806a.6.6,0,0,1-.535.331c-.912,0-2.863-1.656-9.075-7.7-1.373-1.335-3.313-3.182-4.325-4.118l-.08-.074c-3.126-2.881-3.126-2.881-3.125-11.49v-7.957l-.948-1.04c-.464-.508-2.463-2.718-4.538-5.026a47.022,47.022,0,0,0-4.02-4.151.625.625,0,0,0-.207-.037c-.63,0-1.758.847-3.55,2.667a7.123,7.123,0,0,0-2.25,3.739l-.564,2.023,1.042,1.486c4.665,6.658,5.17,7.538,4.906,8.561a9.129,9.129,0,0,0,.6,6.286c.111.218.263.507.566,1.084l.011.021.021.04.029.053,0,.007,0,.007.017.032c1.275,2.418,3.648,6.92,3.433,7.279a.047.047,0,0,1-.041.022c-.668,0-5.815-7.469-6.7-9.091a4.973,4.973,0,0,1-.837-3.782,16.475,16.475,0,0,1,.342-2.421c.1-.288-.778-1.616-2.245-3.383-1.334-1.6-2.8-3.523-3.277-4.279a4.63,4.63,0,0,0-1.087-1.372,22.154,22.154,0,0,0-2.724,2.272c-1.362,1.241-3.082,2.726-3.834,3.31-1.53,1.181-1.792,1.642-2.339,4.111l-.392,1.767,2.117,4.54a41.932,41.932,0,0,1,2.113,5.036,5.68,5.68,0,0,1-1.064,1.918c-.559.744-1.648,2.293-2.426,3.454-.905,1.352-1.272,1.764-1.568,1.764a.386.386,0,0,1-.252-.109c-.76-.635-.526-2.066.611-3.737,1.259-1.852,1.865-3.477,1.581-4.24-.119-.314-1.341-2.325-2.725-4.485a25.377,25.377,0,0,1-2.688-5c-.24-1.511.765-7.013,1.494-8.177l.6-.969-5.193-5.322c-2.866-2.937-5.279-5.366-5.378-5.414a.019.019,0,0,0-.012,0c-.373,0-2.848,6.7-2.848,7.712a6.014,6.014,0,0,0,.814,2.374c.73,1.26.8,1.7.722,4.255-.074,2.267-.192,2.854-.575,2.854-.663,0-1.241-1.876-1.262-4.1a3.825,3.825,0,0,0-1.3-3.328,5.72,5.72,0,0,1-1.283-2.038c0-.3.527-2.809,1.175-5.594l1.178-5.05-.973-1.245A19.045,19.045,0,0,1,17.17,92.2c-.937-1.862-4.015-6.037-4.45-6.037a.047.047,0,0,0-.025.007,5.078,5.078,0,0,0-.673,1.7,28.293,28.293,0,0,1-1.61,3.965,36.5,36.5,0,0,0-1.888,4.775c-1.275,4.311-1.808,5.241-4.384,7.652l-2.417,2.258L.454,111.169l-1.27,4.651L.74,117.38c1.64,1.644,2.2,2.705,5.015,9.464L7.5,131.029,10,132.411c1.4.769,4.107,2.057,6.028,2.871,2.446,1.033,4.073,2.173,4.354,3.049a.578.578,0,0,1-.028.488.115.115,0,0,1-.105.052,2.094,2.094,0,0,1-.759-.4l-.014-.01-.011-.008-.008,0-.012-.007a6.36,6.36,0,0,0-.6-.367,71.072,71.072,0,0,0-7.514-2.982,17.749,17.749,0,0,0-5.674-1.005c-.382,0-.7.013-1,.026l-.132.005-.025,0H4.483c-.158.008-.375.018-.566.018a1.012,1.012,0,0,1-.775-.206,11.724,11.724,0,0,1-.834-2.025l0-.013-.009-.023-.012-.035-.008-.022-.006-.02-.007-.019,0-.008,0-.013A43.378,43.378,0,0,0-.59,125.19a74.161,74.161,0,0,0-3.982-6.334c-.3-.263-2.668-1.595-5.275-2.968-3.089-1.626-4.673-2.32-5.3-2.32a.547.547,0,0,0-.149.017c-1.046.28-5.641,4.487-9.106,8.337-2.652,2.946-2.977,3.44-2.9,4.407.077.985.325,1.232,2.648,2.648a25.644,25.644,0,0,0,4.807,2.246l.423.13c3.035.925,3.667,1.118,4.753,3.35a17.142,17.142,0,0,0,3.782,4.117A41.772,41.772,0,0,1-5,144.169c.038.109.04.182.008.223a.2.2,0,0,1-.175.065c-.527,0-2.113-.772-4.99-2.429a44.758,44.758,0,0,0-4.51-2.423c-.732,0-2.532-1.789-3.263-3.244-.523-1.038-1.047-1.635-1.515-1.728-.409-.078-1.738-.393-2.962-.7a18.252,18.252,0,0,0-3.032-.551h-.012c-.451.007-5.47,2.8-11.427,6.348-3.452,2.055-6.642,4.167-8.753,5.565l-.02.013-.055.037-.009.006-.046.031-.021.014-.009.007-.008,0-.2.132-.018.011c-.365.242-.694.46-.979.647l3.98-7.483a7.36,7.36,0,0,0,.714-.64c1.642-1.693,5.318-7.867,5.315-8.927a15.776,15.776,0,0,0-.637-2.777,14.954,14.954,0,0,1-.639-2.99c0-.625,1.1-2.433,3.69-6.046,1.284-1.793,2.368-3.471,2.9-4.312l10.825-9.41h2.837l2.447-4.669c1.669-3.186,2.7-4.8,3.25-5.085.441-.224,2.532-1.046,4.567-1.8l3.772-1.387,7.123-7.094,1.437-1.433L4.6,82.13l.018-.019.019-.018c5.745-5.726,6.94-6.917,7.512-6.917a.611.611,0,0,1,.38.177l.043.033c.034.027.065.05.1.071a38.435,38.435,0,0,1,3.306,3.536c4.054,4.721,9.141,10.469,11.339,12.814,1.284,1.369,1.768,1.825,2.1,1.825a.479.479,0,0,0,.347-.19c.251-.263,2.774-4.824,5.624-10.167A118.266,118.266,0,0,1,41.3,72.92c.506-.454,1.931-.91,4.357-1.4a35.853,35.853,0,0,0,4.4-1.089c.862-.4,10.446-10.777,12.661-13.712A7,7,0,0,1,64.58,54.8c.308,0,3.515,4.472,6.363,8.627s6.005,8.967,6.2,9.7c.2.758,1.033,1.329,5.231,3.592A50.159,50.159,0,0,1,88.07,80.1c.456.453,1.241,2.5,2.269,5.918a37.061,37.061,0,0,0,2.116,5.91A21.28,21.28,0,0,0,96.643,94.4c3.2,1.568,3.666,1.9,3.876,2.752.39,1.593,3.628,7.1,4.175,7.1a73.053,73.053,0,0,0,7.282-5.81c3.672-3.149,6.95-5.846,7.159-5.889.239,0,2.347,2.5,4.7,5.563l4.273,5.489h3.754l7.225,7.749H138.3l1.054,2.288a7.178,7.178,0,0,0,1.6,2.5,8.379,8.379,0,0,0,2.076.211,2.6,2.6,0,0,1,2.024.566c.273.313,1.89,3.608,3.605,7.344l.063.138c5.027,10.964,5.027,10.964,7.808,14.1l.041.046c.91,1.025,1.5,1.661,1.837,2.013L161,145.236l-6.674-1.788c-.557-.4-1.179-.822-1.848-1.269-2.473-1.654-5.635-3.966-7.047-5.153-2.772-2.327-4.362-3.507-4.727-3.507a.076.076,0,0,0-.06.021c-.38.382,1.046,5.9,2.422,9.365,1.427,3.595,1.525,4,1.043,4.369A1.357,1.357,0,0,1,143.409,147.63Z" transform="translate(1152 260)" fill="#fff"/>
    </g>
    <text id="Peak" transform="translate(1172 383)" fill="#fff" font-size="28" font-family="Montserrat-Medium, Montserrat" font-weight="500"><tspan x="0" y="0">Peak</tspan></text>
    <text id="Greet" transform="translate(1208 409)" fill="#59c36d" font-size="28" font-family="Montserrat-SemiBold, Montserrat" font-weight="600"><tspan x="0" y="0">Greet</tspan></text>
  </g>
</svg>
