<svg xmlns="http://www.w3.org/2000/svg" width="128" height="128" viewBox="0 0 128 128">
  <g id="appiconfg" transform="translate(-1119 -100)">
    <g id="appiconfg-2" data-name="appiconfg" transform="translate(-3814 264)">
      <g id="splash" transform="translate(4933 -164)">
        <rect id="Rechteck_24" data-name="Rechteck 24" width="128" height="128" fill="none"/>
      </g>
    </g>
    <path id="Differenzmenge_18" data-name="Differenzmenge 18" d="M18.911,86.933c-.108,0-.188-.124-.337-.42-.123-.241-.534-.937-.9-1.519a5.555,5.555,0,0,1-1.113-2.95,7.713,7.713,0,0,0-.852-2.623,6.641,6.641,0,0,0-1.73-2.72,9.494,9.494,0,0,0-1.07-1.038,2.042,2.042,0,0,0-.166.8l-.08.8.615.566a2.009,2.009,0,0,1,.908,1.627,2.4,2.4,0,0,0,.454,1.143c.246.349.335.571.289.722a.332.332,0,0,1-.223.2.172.172,0,0,1-.051.009c-.133,0-.351-.166-.706-.538a1.674,1.674,0,0,1-.655-1.264c-.077-.626-.123-.706-.813-1.427l-.731-.763-.017-.745a22.329,22.329,0,0,0-.653-5.01,5.276,5.276,0,0,0-.376-.855.027.027,0,0,0-.02-.008A8.837,8.837,0,0,0,9.026,73.26c-.331.565-.76,1.26-.957,1.549a2.178,2.178,0,0,0-.369.76,14.681,14.681,0,0,0,1.178,2.784c.184.213.192.353.028.519a.235.235,0,0,1-.165.081c-.173,0-.392-.238-.809-.878-.862-1.32-1.332-1.935-1.48-1.935l-.015,0c-.069.026-.37.127-.715.241a1.613,1.613,0,0,0-1.14,1.271.814.814,0,0,0,.083.783A15.7,15.7,0,0,0,6.7,81.122c.648.74.9,1.121.826,1.275-.025.055-.091.082-.2.082a10.078,10.078,0,0,1-1.524-1.3c-.747-.711-1.669-1.57-2.055-1.914-.948-.844-1.056-1.1-.887-2.1a2.66,2.66,0,0,1,.436-1.184,1.482,1.482,0,0,0,.3-.7,10.014,10.014,0,0,0-.622-1.777c-.338-.8-.712-1.737-.832-2.083C1.8,70.434,1.547,70.2-.1,69.348-1.82,68.459-1.857,68.415-2.052,67l-.031-.223c-.188-1.371-.188-1.371-.7-1.718l0,0-.04-.027-.014-.01,0,0L-2.866,65c-.26-.176-.794-.543-1.632-1.122l-.006,0,0,0c-.538-.372-.834-.576-1-.576-.192,0-.2.295-.2.883-.007.641,0,.654.651,1.361a4.9,4.9,0,0,1,1.337,2.414c0,.21-.045.317-.133.317-.142,0-.388-.282-.693-.794a3.194,3.194,0,0,0-1.058-1.155l-.059-.039c-1.058-.7-1.058-.7-1.046-2.577v-.1a8.172,8.172,0,0,0-.145-2.2,8.689,8.689,0,0,0-1.394-2.1c-.068-.062-.113-.1-.15-.1-.092,0-.144.233-.3.927l0,.01v0c-.126.575-.288,1.367-.36,1.767a5.134,5.134,0,0,1-.277,1.019,9.724,9.724,0,0,0-.337,1.69,5.7,5.7,0,0,0-.049,2.2c.164.926.216.977,1.4,1.362.457.15,1.2.4,1.664.56a15.1,15.1,0,0,0,1.522.434,1.418,1.418,0,0,1,1.028.59,3.2,3.2,0,0,1,.718,1.709,21.064,21.064,0,0,0,2.5,3.755,1.574,1.574,0,0,1,.433.95,18.288,18.288,0,0,0,.414,2.247,2.922,2.922,0,0,1-.414,1.305c-.03.036-.055.053-.079.053-.1,0-.149-.307-.226-.772V79a13.731,13.731,0,0,0-.4-1.831,7.035,7.035,0,0,0-1.971-3.017A6.171,6.171,0,0,1-4.7,71.92l-.738-1.452-.665-.2a7.235,7.235,0,0,0-1.708-.293c-.122,0-.2.012-.219.037a.025.025,0,0,0-.007.02,7.16,7.16,0,0,0,.557.938l.074.112v0l.025.037,0,0,.017.026.039.059,0,0c.748,1.129.748,1.129.555,3.94v.017l-.016.239v.01l0,.061v.005q-.005.079-.011.161l-.008.111c-.2,2.9-.2,3.226-.042,3.478.1.154,1.1,1.3,2.233,2.553,2.175,2.4,2.276,2.529,2.171,2.7a.207.207,0,0,1-.185.115c-.316,0-.991-.573-3.141-2.666-.475-.462-1.147-1.1-1.5-1.426l-.028-.026c-1.082-1-1.082-1-1.082-3.977V73.757l-.328-.36c-.161-.176-.853-.941-1.571-1.74a16.277,16.277,0,0,0-1.392-1.437.217.217,0,0,0-.072-.013c-.218,0-.609.293-1.229.923a2.466,2.466,0,0,0-.779,1.294l-.2.7.361.514c1.615,2.3,1.789,2.609,1.7,2.963a3.16,3.16,0,0,0,.207,2.176c.039.076.091.176.2.375l0,.007.007.014.01.018v0l0,0,.006.011a15.124,15.124,0,0,1,1.189,2.52.016.016,0,0,1-.014.008A18.546,18.546,0,0,1-12.6,78.59a1.721,1.721,0,0,1-.29-1.309,5.7,5.7,0,0,1,.118-.838c.036-.1-.269-.559-.777-1.171-.462-.555-.971-1.22-1.134-1.481a1.6,1.6,0,0,0-.376-.475A7.669,7.669,0,0,0-16,74.1c-.472.429-1.067.943-1.327,1.146-.529.409-.62.569-.81,1.423l-.136.612.733,1.571a14.515,14.515,0,0,1,.731,1.743,1.966,1.966,0,0,1-.368.664c-.194.257-.57.794-.84,1.2-.313.468-.44.611-.543.611a.134.134,0,0,1-.087-.038c-.263-.22-.182-.715.212-1.294.436-.641.646-1.2.547-1.468-.041-.109-.464-.8-.943-1.552a8.785,8.785,0,0,1-.931-1.732,7.908,7.908,0,0,1,.517-2.83l.209-.336-1.8-1.842c-.992-1.017-1.827-1.858-1.861-1.874h0a11.14,11.14,0,0,0-.986,2.67,2.082,2.082,0,0,0,.282.822c.253.436.278.588.25,1.473-.026.785-.066.988-.2.988-.23,0-.43-.649-.437-1.418a1.324,1.324,0,0,0-.45-1.152,1.98,1.98,0,0,1-.444-.705c0-.1.183-.972.407-1.937l.408-1.748-.337-.431a6.592,6.592,0,0,1-.582-.919,9,9,0,0,0-1.541-2.09l-.009,0a1.758,1.758,0,0,0-.233.589,9.794,9.794,0,0,1-.557,1.372,12.633,12.633,0,0,0-.654,1.653A4.431,4.431,0,0,1-29.3,71.92l-.837.782-.439,1.61-.44,1.61.539.54c.568.569.762.936,1.736,3.276l.6,1.449.868.478c.485.266,1.422.712,2.087.994.847.358,1.41.752,1.507,1.055a.2.2,0,0,1-.01.169.04.04,0,0,1-.036.018.725.725,0,0,1-.263-.139l0,0,0,0,0,0,0,0a2.2,2.2,0,0,0-.206-.127,24.6,24.6,0,0,0-2.6-1.032,6.144,6.144,0,0,0-1.964-.348c-.132,0-.244,0-.345.009l-.046,0h-.018c-.055,0-.13.006-.2.006a.35.35,0,0,1-.268-.071,4.058,4.058,0,0,1-.289-.7l0,0,0-.008,0-.012,0-.007,0-.007,0-.007v0l0,0a15.015,15.015,0,0,0-.984-2.272,25.669,25.669,0,0,0-1.379-2.193c-.1-.091-.924-.552-1.826-1.027a6.649,6.649,0,0,0-1.834-.8.189.189,0,0,0-.051.006,16.537,16.537,0,0,0-3.152,2.886c-.918,1.02-1.031,1.191-1,1.526s.112.426.917.917a8.876,8.876,0,0,0,1.664.778l.146.045c1.051.32,1.269.387,1.645,1.16A5.934,5.934,0,0,0-34.5,83.883a14.459,14.459,0,0,1,2.037,1.852c.013.038.014.063,0,.077a.069.069,0,0,1-.061.022,6.608,6.608,0,0,1-1.727-.841,15.493,15.493,0,0,0-1.561-.839c-.254,0-.876-.619-1.13-1.123-.181-.359-.362-.566-.524-.6-.142-.027-.6-.136-1.025-.243A6.318,6.318,0,0,0-39.538,82h0A39.88,39.88,0,0,0-43.5,84.2c-1.195.711-2.3,1.442-3.03,1.926l-.007,0-.019.013,0,0-.016.011-.007,0,0,0,0,0-.069.046-.006,0-.339.224,1.378-2.59a2.547,2.547,0,0,0,.247-.222,11.393,11.393,0,0,0,1.84-3.09,5.461,5.461,0,0,0-.221-.961,5.176,5.176,0,0,1-.221-1.035A7.4,7.4,0,0,1-42.7,76.446c.445-.621.82-1.2,1-1.493l3.747-3.257h.982l.847-1.616a5.877,5.877,0,0,1,1.125-1.76c.153-.078.876-.362,1.581-.622l1.306-.48,2.466-2.456.5-.5.006-.006.006-.007.007-.006c1.989-1.982,2.4-2.394,2.6-2.394a.212.212,0,0,1,.131.061l.015.012.033.025A13.3,13.3,0,0,1-25.2,63.174c1.4,1.634,3.164,3.624,3.925,4.436.444.474.612.632.728.632a.166.166,0,0,0,.12-.066c.087-.091.96-1.67,1.947-3.519a40.939,40.939,0,0,1,2.048-3.585,4,4,0,0,1,1.508-.483,12.411,12.411,0,0,0,1.523-.377A54.522,54.522,0,0,0-9.02,55.465a2.423,2.423,0,0,1,.644-.666,27.826,27.826,0,0,1,2.2,2.986,36.575,36.575,0,0,1,2.147,3.356c.07.262.357.46,1.811,1.243A17.362,17.362,0,0,1-.245,63.557a7.737,7.737,0,0,1,.785,2.049,12.828,12.828,0,0,0,.732,2.046,7.366,7.366,0,0,0,1.45.856c1.106.543,1.269.659,1.342.953A8.256,8.256,0,0,0,5.51,71.92,25.288,25.288,0,0,0,8.03,69.909c1.271-1.09,2.406-2.023,2.478-2.038A14.362,14.362,0,0,1,12.135,69.8l1.479,1.9h1.3l2.5,2.682h-.272l.365.792a2.485,2.485,0,0,0,.555.866,2.9,2.9,0,0,0,.719.073.9.9,0,0,1,.7.2c.095.109.654,1.249,1.248,2.542l.022.048c1.74,3.8,1.74,3.8,2.7,4.882l.014.016c.315.355.52.575.636.7L25,86.1l-2.31-.619c-.193-.137-.408-.285-.64-.439-.856-.573-1.95-1.373-2.439-1.784a7.593,7.593,0,0,0-1.636-1.214.026.026,0,0,0-.021.007,10.884,10.884,0,0,0,.838,3.242c.494,1.244.528,1.386.361,1.513A.47.47,0,0,1,18.911,86.933Z" transform="translate(1194 93.134)" fill="#fff"/>
  </g>
</svg>
